<svg version="1.1" id="Layer_1" xmlns="http://www.w3.org/2000/svg" xmlns:xlink="http://www.w3.org/1999/xlink" x="0px" y="0px"
	 width="100%" viewBox="0 0 512 512" enable-background="new 0 0 512 512" xml:space="preserve">
<path fill="#000000" opacity="1.000000" stroke="none" 
	d="
M513.000000,295.000000 
	C513.000000,367.633240 513.000000,440.266479 513.000000,512.949829 
	C342.445312,512.949829 171.890579,512.949829 1.000000,512.949829 
	C1.000000,440.645569 1.000000,368.290649 1.427515,295.475098 
	C2.231502,295.440613 2.844625,295.815338 2.949982,296.300323 
	C5.923589,309.989563 8.282355,323.841583 11.916903,337.350769 
	C16.647104,354.932434 24.625271,371.221100 33.489670,387.135895 
	C44.756310,407.363556 59.284210,425.047272 75.277679,441.509308 
	C82.866066,449.320007 91.708107,455.969360 100.309631,462.728149 
	C123.053886,480.599854 148.560440,493.330627 175.929169,502.434692 
	C183.461899,504.940491 192.570374,500.547089 193.713074,493.371246 
	C194.541565,488.168549 193.983170,482.740601 193.994034,477.413025 
	C194.014648,467.301392 194.000000,457.189697 194.000000,447.013184 
	C192.097549,447.013184 190.717712,446.779449 189.444763,447.049530 
	C177.420639,449.600891 165.346359,449.862183 153.217102,447.998779 
	C130.223480,444.466309 114.796906,431.397919 106.060883,410.168060 
	C100.261986,396.075775 92.110886,384.067596 78.819061,375.869720 
	C74.850983,373.422394 71.688370,369.669067 67.378975,365.819275 
	C70.280334,364.360077 71.616837,363.445709 73.094765,362.983887 
	C82.720787,359.975647 91.274269,363.350708 99.379707,367.987488 
	C109.273788,373.647430 115.885345,382.533691 122.040062,391.895172 
	C131.925522,406.931152 145.895401,414.821503 164.068237,415.019531 
	C174.909805,415.137695 185.102219,412.513733 194.599823,408.663330 
	C196.478867,395.170624 201.418045,383.705658 210.957718,374.275574 
	C206.422791,373.468506 202.320679,372.612823 198.180679,372.023376 
	C179.744507,369.398193 162.056198,364.647675 145.685471,355.342407 
	C125.350975,343.784088 110.924522,327.206757 103.100471,305.306946 
	C95.520042,284.089050 92.672249,262.154846 94.911301,239.545929 
	C96.816406,220.309036 103.788872,203.418259 115.900635,188.453796 
	C117.716545,186.210175 120.247330,182.724609 119.635941,180.636887 
	C116.074921,168.476944 113.447639,156.334305 116.045143,143.680405 
	C117.821663,135.025986 119.971832,126.445801 122.126938,117.875687 
	C122.324104,117.091621 123.739632,116.160233 124.648888,116.092186 
	C127.631271,115.868988 130.732468,115.537430 133.625336,116.093582 
	C150.369659,119.312614 165.935440,125.752594 180.224854,134.917007 
	C187.481796,139.571182 193.975677,142.800034 203.304977,140.301178 
	C214.354126,137.341644 225.967819,135.825241 237.419769,135.198288 
	C252.540085,134.370483 267.809052,134.137009 282.885498,135.306335 
	C294.707245,136.223221 306.316895,139.751541 318.065125,141.874268 
	C319.810974,142.189728 322.016266,141.554352 323.643097,140.678909 
	C334.381592,134.900208 344.717224,128.270294 355.783203,123.234009 
	C365.267181,118.917747 375.351471,115.680908 386.169128,115.896400 
	C389.404449,115.960846 390.816254,116.966484 391.563141,120.011757 
	C392.744598,124.829216 394.596405,129.490784 395.643646,134.331024 
	C398.574005,147.875473 399.514984,161.577332 394.861267,174.849792 
	C392.674194,181.087372 394.255066,185.220001 398.216949,189.849869 
	C411.511261,205.385605 418.110748,223.889496 418.733978,244.000778 
	C419.142975,257.198853 417.847565,270.607117 415.818817,283.689178 
	C412.102936,307.649994 402.049896,328.484070 383.056396,344.547943 
	C365.086029,359.746490 343.831329,366.824402 321.252655,370.972046 
	C314.970215,372.126099 308.625641,372.941956 302.362976,373.904755 
	C305.740112,378.399719 309.523804,382.204254 311.842926,386.755157 
	C318.609924,400.034119 319.769562,414.275726 319.200714,429.102539 
	C318.409149,449.734467 318.819641,470.422363 319.137878,491.079773 
	C319.211700,495.870911 321.661377,500.708405 326.861053,501.719635 
	C330.877106,502.500671 335.442535,502.087524 339.446686,501.018188 
	C357.111145,496.300934 373.262085,487.982300 389.033234,478.964355 
	C414.866760,464.192749 437.107056,444.979004 456.082642,422.207367 
	C471.191528,404.075928 483.648193,384.105469 492.975067,362.307617 
	C501.946289,341.340912 508.447968,319.698669 511.076172,296.969238 
	C511.159515,296.248291 512.334106,295.653564 513.000000,295.000000 
z"/>
<path fill="#FFFFFF" opacity="1.000000" stroke="none" 
	d="
M513.000000,294.531342 
	C512.334106,295.653564 511.159515,296.248291 511.076172,296.969238 
	C508.447968,319.698669 501.946289,341.340912 492.975067,362.307617 
	C483.648193,384.105469 471.191528,404.075928 456.082642,422.207367 
	C437.107056,444.979004 414.866760,464.192749 389.033234,478.964355 
	C373.262085,487.982300 357.111145,496.300934 339.446686,501.018188 
	C335.442535,502.087524 330.877106,502.500671 326.861053,501.719635 
	C321.661377,500.708405 319.211700,495.870911 319.137878,491.079773 
	C318.819641,470.422363 318.409149,449.734467 319.200714,429.102539 
	C319.769562,414.275726 318.609924,400.034119 311.842926,386.755157 
	C309.523804,382.204254 305.740112,378.399719 302.362976,373.904755 
	C308.625641,372.941956 314.970215,372.126099 321.252655,370.972046 
	C343.831329,366.824402 365.086029,359.746490 383.056396,344.547943 
	C402.049896,328.484070 412.102936,307.649994 415.818817,283.689178 
	C417.847565,270.607117 419.142975,257.198853 418.733978,244.000778 
	C418.110748,223.889496 411.511261,205.385605 398.216949,189.849869 
	C394.255066,185.220001 392.674194,181.087372 394.861267,174.849792 
	C399.514984,161.577332 398.574005,147.875473 395.643646,134.331024 
	C394.596405,129.490784 392.744598,124.829216 391.563141,120.011757 
	C390.816254,116.966484 389.404449,115.960846 386.169128,115.896400 
	C375.351471,115.680908 365.267181,118.917747 355.783203,123.234009 
	C344.717224,128.270294 334.381592,134.900208 323.643097,140.678909 
	C322.016266,141.554352 319.810974,142.189728 318.065125,141.874268 
	C306.316895,139.751541 294.707245,136.223221 282.885498,135.306335 
	C267.809052,134.137009 252.540085,134.370483 237.419769,135.198288 
	C225.967819,135.825241 214.354126,137.341644 203.304977,140.301178 
	C193.975677,142.800034 187.481796,139.571182 180.224854,134.917007 
	C165.935440,125.752594 150.369659,119.312614 133.625336,116.093582 
	C130.732468,115.537430 127.631271,115.868988 124.648888,116.092186 
	C123.739632,116.160233 122.324104,117.091621 122.126938,117.875687 
	C119.971832,126.445801 117.821663,135.025986 116.045143,143.680405 
	C113.447639,156.334305 116.074921,168.476944 119.635941,180.636887 
	C120.247330,182.724609 117.716545,186.210175 115.900635,188.453796 
	C103.788872,203.418259 96.816406,220.309036 94.911301,239.545929 
	C92.672249,262.154846 95.520042,284.089050 103.100471,305.306946 
	C110.924522,327.206757 125.350975,343.784088 145.685471,355.342407 
	C162.056198,364.647675 179.744507,369.398193 198.180679,372.023376 
	C202.320679,372.612823 206.422791,373.468506 210.957718,374.275574 
	C201.418045,383.705658 196.478867,395.170624 194.599823,408.663330 
	C185.102219,412.513733 174.909805,415.137695 164.068237,415.019531 
	C145.895401,414.821503 131.925522,406.931152 122.040062,391.895172 
	C115.885345,382.533691 109.273788,373.647430 99.379707,367.987488 
	C91.274269,363.350708 82.720787,359.975647 73.094765,362.983887 
	C71.616837,363.445709 70.280334,364.360077 67.378975,365.819275 
	C71.688370,369.669067 74.850983,373.422394 78.819061,375.869720 
	C92.110886,384.067596 100.261986,396.075775 106.060883,410.168060 
	C114.796906,431.397919 130.223480,444.466309 153.217102,447.998779 
	C165.346359,449.862183 177.420639,449.600891 189.444763,447.049530 
	C190.717712,446.779449 192.097549,447.013184 194.000000,447.013184 
	C194.000000,457.189697 194.014648,467.301392 193.994034,477.413025 
	C193.983170,482.740601 194.541565,488.168549 193.713074,493.371246 
	C192.570374,500.547089 183.461899,504.940491 175.929169,502.434692 
	C148.560440,493.330627 123.053886,480.599854 100.309631,462.728149 
	C91.708107,455.969360 82.866066,449.320007 75.277679,441.509308 
	C59.284210,425.047272 44.756310,407.363556 33.489670,387.135895 
	C24.625271,371.221100 16.647104,354.932434 11.916903,337.350769 
	C8.282355,323.841583 5.923589,309.989563 2.949982,296.300323 
	C2.844625,295.815338 2.231502,295.440613 1.427515,295.007263 
	C1.000000,273.979095 1.000000,252.958206 1.427508,231.461395 
	C2.231513,230.558426 2.865518,230.174927 2.946212,229.697845 
	C4.349681,221.400085 5.014549,212.912582 7.165837,204.818726 
	C12.816113,183.560577 20.239889,162.930618 31.012657,143.616913 
	C45.607788,117.450386 64.057442,94.510674 86.624489,74.712379 
	C103.282455,60.098183 121.480835,47.863457 141.224640,38.108425 
	C166.291214,25.723516 192.623062,17.125954 220.618057,13.885187 
	C237.770538,11.899579 254.825134,9.736526 272.119019,11.966601 
	C283.749725,13.466406 295.479218,14.280273 307.057892,16.085192 
	C326.354706,19.093237 344.851776,25.176834 362.519775,33.318314 
	C383.812073,43.129871 403.794128,55.076195 422.004730,70.181190 
	C437.573730,83.095062 451.485199,97.453392 463.573914,113.438576 
	C474.513092,127.903694 483.802429,143.496841 491.164459,160.270126 
	C500.864166,182.369385 508.077576,205.049149 511.075195,229.031250 
	C511.165833,229.756378 512.334106,230.346786 513.000000,231.000000 
	C513.000000,252.020889 513.000000,273.041779 513.000000,294.531342 
z"/>
<path fill="#000000" opacity="1.000000" stroke="none" 
	d="
M513.000000,230.531342 
	C512.334106,230.346786 511.165833,229.756378 511.075195,229.031250 
	C508.077576,205.049149 500.864166,182.369385 491.164459,160.270126 
	C483.802429,143.496841 474.513092,127.903694 463.573914,113.438576 
	C451.485199,97.453392 437.573730,83.095062 422.004730,70.181190 
	C403.794128,55.076195 383.812073,43.129871 362.519775,33.318314 
	C344.851776,25.176834 326.354706,19.093237 307.057892,16.085192 
	C295.479218,14.280273 283.749725,13.466406 272.119019,11.966601 
	C254.825134,9.736526 237.770538,11.899579 220.618057,13.885187 
	C192.623062,17.125954 166.291214,25.723516 141.224640,38.108425 
	C121.480835,47.863457 103.282455,60.098183 86.624489,74.712379 
	C64.057442,94.510674 45.607788,117.450386 31.012657,143.616913 
	C20.239889,162.930618 12.816113,183.560577 7.165837,204.818726 
	C5.014549,212.912582 4.349681,221.400085 2.946212,229.697845 
	C2.865518,230.174927 2.231513,230.558426 1.427508,230.992737 
	C1.000000,154.367828 1.000000,77.735657 1.000000,1.051745 
	C171.555359,1.051745 342.110748,1.051745 513.000000,1.051745 
	C513.000000,77.353905 513.000000,153.708298 513.000000,230.531342 
z"/>
</svg>