<?xml version="1.0" standalone="no"?>
<!DOCTYPE svg PUBLIC "-//W3C//DTD SVG 20010904//EN"
 "http://www.w3.org/TR/2001/REC-SVG-20010904/DTD/svg10.dtd">
<svg version="1.0" xmlns="http://www.w3.org/2000/svg"
 width="200.000000pt" height="200.000000pt" viewBox="0 0 200.000000 200.000000"
 preserveAspectRatio="xMidYMid meet">

<g transform="translate(0.000000,200.000000) scale(0.100000,-0.100000)"
fill="#000000" stroke="none">
<path d="M1306 1982 c-3 -6 -1 -14 5 -17 14 -9 20 -2 10 14 -6 8 -11 9 -15 3z"/>
<path d="M1265 1870 c-8 -13 -1 -24 14 -19 6 3 7 10 2 18 -6 10 -10 10 -16 1z"/>
<path d="M1242 1728 c6 -18 28 -21 28 -4 0 9 -7 16 -16 16 -9 0 -14 -5 -12
-12z"/>
<path d="M775 1630 c-83 -21 -147 -70 -165 -126 l-12 -34 -29 24 c-39 33 -93
49 -140 42 -39 -6 -129 -45 -129 -55 0 -4 18 -19 40 -35 22 -17 40 -32 40 -35
0 -3 -19 -19 -41 -35 -28 -20 -50 -47 -66 -83 -30 -64 -49 -189 -36 -237 l8
-34 75 69 75 70 6 -88 c6 -92 34 -203 50 -203 23 0 142 211 169 300 l16 55 15
-95 c8 -55 14 -169 14 -271 l0 -176 75 19 c41 10 80 21 87 23 8 3 2 42 -23
137 -20 73 -44 176 -55 228 -11 52 -22 108 -26 125 l-6 30 49 -44 c27 -23 62
-50 78 -58 36 -18 141 -58 180 -67 l29 -7 -7 43 c-8 48 -62 172 -82 189 -27
22 -13 25 69 13 45 -7 83 -11 83 -10 1 0 -4 22 -10 47 -25 95 -123 173 -236
186 -28 3 -50 9 -50 13 0 4 7 26 15 49 14 40 14 41 -8 40 -12 -1 -35 -5 -52
-9z m5 -59 c0 -23 -11 -33 -83 -71 -40 -21 -57 -26 -57 -16 0 23 38 63 82 85
53 26 58 26 58 2z m-248 -97 c41 -21 43 -34 6 -34 -18 0 -50 -4 -70 -9 -37 -9
-52 -3 -102 40 -12 10 73 27 109 21 17 -3 42 -11 57 -18z m397 6 c19 -5 50
-21 70 -35 36 -24 78 -81 68 -92 -3 -3 -42 0 -87 6 -58 8 -90 18 -113 35 -18
13 -52 30 -77 39 l-45 15 51 1 c54 1 100 -10 147 -36 28 -15 44 -13 34 4 -13
21 -106 57 -162 63 l-60 7 70 2 c39 0 85 -3 104 -9z m-171 -149 c33 -22 79
-56 101 -77 23 -20 45 -33 49 -29 4 4 -27 38 -68 76 -75 69 -76 78 -9 59 60
-17 144 -123 174 -219 7 -22 5 -23 -21 -17 -16 4 -61 23 -101 42 -54 26 -84
49 -126 96 -57 66 -84 108 -69 108 5 0 36 -18 70 -39z m-354 7 c-10 -12 -27
-31 -37 -43 -25 -27 -50 -75 -39 -75 4 0 30 25 56 55 72 84 88 86 50 9 -28
-58 -71 -108 -143 -169 l-24 -20 6 62 c4 34 14 80 23 102 19 47 75 101 106
101 21 0 21 0 2 -22z m131 -25 c-18 -47 -55 -188 -55 -210 0 -33 17 -20 25 20
12 61 45 152 66 182 l20 30 -3 -87 c-4 -73 -9 -97 -38 -155 -39 -79 -79 -143
-90 -143 -11 0 -23 92 -22 166 1 83 17 138 53 179 33 37 55 46 44 18z"/>
<path d="M1260 1590 c0 -5 7 -10 15 -10 8 0 15 5 15 10 0 6 -7 10 -15 10 -8 0
-15 -4 -15 -10z"/>
<path d="M1310 1475 c0 -9 5 -15 11 -13 6 2 11 8 11 13 0 5 -5 11 -11 13 -6 2
-11 -4 -11 -13z"/>
<path d="M1396 1383 c-11 -11 -6 -23 9 -23 8 0 15 4 15 9 0 13 -16 22 -24 14z"/>
<path d="M1497 1294 c-8 -8 1 -24 14 -24 5 0 9 7 9 15 0 15 -12 20 -23 9z"/>
<path d="M1622 1229 c2 -6 8 -10 13 -10 5 0 11 4 13 10 2 6 -4 11 -13 11 -9 0
-15 -5 -13 -11z"/>
<path d="M1910 1220 c0 -5 5 -10 11 -10 5 0 7 5 4 10 -3 6 -8 10 -11 10 -2 0
-4 -4 -4 -10z"/>
<path d="M1770 1200 c0 -5 7 -10 15 -10 8 0 15 5 15 10 0 6 -7 10 -15 10 -8 0
-15 -4 -15 -10z"/>
<path d="M877 1019 c-23 -13 -22 -28 4 -55 21 -23 22 -24 5 -113 -20 -110 -20
-121 -1 -121 19 0 23 9 38 100 l12 73 52 -52 c46 -48 50 -56 43 -82 -8 -26 -6
-29 16 -29 17 0 24 5 24 20 0 24 1 24 160 -4 l125 -22 -2 -31 c-2 -23 2 -32
17 -36 15 -4 20 0 20 15 0 11 7 35 16 54 9 19 14 41 10 49 -7 20 -36 19 -52
-2 -13 -17 -14 -17 -20 4 -9 31 -84 48 -84 18 0 -8 -4 -15 -10 -15 -5 0 -10 9
-10 20 0 12 -7 20 -17 20 -10 0 -28 3 -40 6 -17 5 -23 2 -23 -10 0 -9 -7 -16
-15 -16 -8 0 -15 9 -15 20 0 12 -7 20 -18 20 -10 0 -29 8 -42 17 -14 10 -33
16 -43 15 -15 -3 -17 1 -13 16 7 21 -26 58 -43 47 -17 -10 -34 5 -22 19 8 9 5
18 -12 33 -32 29 -41 32 -60 22z"/>
<path d="M170 613 c-14 -2 -58 -13 -97 -25 -63 -18 -73 -24 -73 -44 l0 -23 58
21 c48 18 83 22 224 24 162 3 188 6 188 23 0 22 -211 39 -300 24z"/>
<path d="M1578 608 c-27 -5 -48 -14 -48 -18 0 -16 39 -21 196 -24 132 -2 169
-6 217 -24 l57 -21 0 23 c0 20 -10 26 -72 45 -85 26 -273 37 -350 19z"/>
<path d="M155 493 c-11 -2 -50 -13 -87 -24 l-68 -20 0 -224 0 -225 451 0 c473
0 469 0 394 41 -32 18 -99 59 -232 142 -227 144 -310 195 -332 207 l-23 12 48
49 48 49 -89 -1 c-50 -1 -99 -3 -110 -6z"/>
<path d="M1716 439 c82 -87 165 -216 208 -323 20 -49 36 -95 36 -102 0 -8 9
-14 20 -14 19 0 20 7 20 225 l0 224 -67 22 c-44 13 -106 23 -173 26 l-105 6
61 -64z"/>
</g>
</svg>
